<svg width="24" height="24" viewBox="0 0 24 24" fill="none" xmlns="http://www.w3.org/2000/svg">
<path d="M9.54063 1.89001H2.89063C2.33834 1.89001 1.89062 2.33773 1.89062 2.89001V9.54001C1.89062 10.0923 2.33834 10.54 2.89063 10.54H9.54063C10.0929 10.54 10.5406 10.0923 10.5406 9.54001V2.89001C10.5406 2.33773 10.0929 1.89001 9.54063 1.89001Z" fill="#101010" stroke="#101010" stroke-width="1.5" stroke-miterlimit="10"/>
<path d="M21.1109 1.89001H14.4609C13.9087 1.89001 13.4609 2.33773 13.4609 2.89001V9.54001C13.4609 10.0923 13.9087 10.54 14.4609 10.54H21.1109C21.6632 10.54 22.1109 10.0923 22.1109 9.54001V2.89001C22.1109 2.33773 21.6632 1.89001 21.1109 1.89001Z" fill="#101010" stroke="#101010" stroke-width="1.5" stroke-miterlimit="10"/>
<path d="M22.1094 21.11V14.46C22.1094 13.9077 21.6617 13.46 21.1094 13.46H14.4594C13.9071 13.46 13.4594 13.9077 13.4594 14.46V21.11C13.4594 21.6623 13.9071 22.11 14.4594 22.11H21.1094C21.6617 22.11 22.1094 21.6623 22.1094 21.11Z" fill="#101010" stroke="#101010" stroke-width="1.5" stroke-miterlimit="10"/>
<path d="M10.5391 21.11V14.46C10.5391 13.9077 10.0913 13.46 9.53906 13.46H2.88906C2.33678 13.46 1.88906 13.9077 1.88906 14.46V21.11C1.88906 21.6623 2.33678 22.11 2.88906 22.11H9.53906C10.0913 22.11 10.5391 21.6623 10.5391 21.11Z" fill="#101010" stroke="#101010" stroke-width="1.5" stroke-miterlimit="10"/>
</svg>
