<svg width="24" height="24" viewBox="0 0 24 24" fill="none" xmlns="http://www.w3.org/2000/svg">
<g clip-path="url(#clip0_467_1150)">
<path d="M11.15 1.41001L1.39 8.95001C1.14 9.14001 1 9.43001 1 9.74001V21.93C1 22.48 1.45 22.93 2 22.93H8.48C9.03 22.93 9.48 22.48 9.48 21.93V16.17C9.48 15.62 9.93 15.17 10.48 15.17H13.04C13.59 15.17 14.04 15.62 14.04 16.17V21.93C14.04 22.48 14.49 22.93 15.04 22.93H21.52C22.07 22.93 22.52 22.48 22.52 21.93V9.74001C22.52 9.43001 22.38 9.14001 22.13 8.95001L12.38 1.41001C12.02 1.13001 11.52 1.13001 11.16 1.41001H11.15Z" fill="#C2C2C2" stroke="#C2C2C2" stroke-miterlimit="10"/>
</g>
<defs>
<clipPath id="clip0_467_1150">
<rect width="24" height="24" fill="white"/>
</clipPath>
</defs>
</svg>
