<svg width="155" height="26" viewBox="0 0 155 26" fill="none" xmlns="http://www.w3.org/2000/svg">
<g clip-path="url(#clip0_467_1234)">
<g clip-path="url(#clip1_467_1234)">
<path d="M13.5769 0H19.1669V3.99079H13.5273" fill="#0CB1F3"/>
<path d="M14.6709 8.02075H11.2455L7.64062 12.0115H14.6709V19.6444L18.6617 16.0415V12.0115V8.02075H14.6709Z" fill="#F45D2E"/>
<path d="M62.8954 4.82239C58.7127 4.82239 55.3203 8.21477 55.3203 12.3975C55.3203 16.5802 58.7127 19.9725 62.8954 19.9725C67.0781 19.9725 70.4705 16.5802 70.4705 12.3975C70.4705 8.21477 67.0781 4.82239 62.8954 4.82239ZM62.8954 15.6165C61.1167 15.6165 59.6763 14.1741 59.6763 12.3975C59.6763 10.6208 61.1187 9.17842 62.8954 9.17842C64.6721 9.17842 66.1144 10.6208 66.1144 12.3975C66.1144 14.1741 64.6721 15.6165 62.8954 15.6165Z" fill="#0CB1F3"/>
<path d="M27.6571 4.82239C23.4744 4.82239 20.082 8.21477 20.082 12.3975C20.082 16.5802 23.4744 19.9725 27.6571 19.9725C31.8398 19.9725 35.2322 16.5802 35.2322 12.3975C35.2322 8.21477 31.8398 4.82239 27.6571 4.82239ZM27.6571 15.6165C25.8784 15.6165 24.4381 14.1741 24.4381 12.3975C24.4381 10.6208 25.8804 9.17842 27.6571 9.17842C29.4338 9.17842 30.8762 10.6208 30.8762 12.3975C30.8762 14.1741 29.4338 15.6165 27.6571 15.6165Z" fill="#0CB1F3"/>
<path d="M18.7984 0H9.84286C4.43032 0 0 4.43032 0 9.84492C0 15.2595 4.43032 19.6898 9.84492 19.6898H13.3343V15.6186H10.301C7.1046 15.6186 4.4881 13.0021 4.4881 9.80571C4.4881 6.60936 7.1046 3.99286 10.301 3.99286H17.3767" fill="#0CB1F3"/>
<path d="M97.7202 14.0545H102.435C102.555 13.52 102.619 12.967 102.619 12.3975C102.619 8.21477 99.2265 4.82239 95.0438 4.82239C90.8611 4.82239 87.4688 8.21477 87.4688 12.3975C87.4688 16.5802 90.8611 19.9725 95.0438 19.9725C98.397 19.9725 101.24 17.7914 102.237 14.7725H97.3487C96.8453 15.5154 96.0714 15.9941 95.2006 15.9941C94.074 15.9941 93.1062 15.1956 92.6832 14.0545H97.7181H97.7202ZM95.2027 8.54493C96.3294 8.54493 97.2972 9.3435 97.7202 10.4846H92.6853C93.1103 9.3435 94.076 8.54493 95.2027 8.54493Z" fill="#0CB1F3"/>
<path d="M138.498 14.0545H143.213C143.332 13.52 143.396 12.967 143.396 12.3975C143.396 8.21477 140.004 4.82239 135.821 4.82239C131.638 4.82239 128.246 8.21477 128.246 12.3975C128.246 16.5802 131.638 19.9725 135.821 19.9725C139.174 19.9725 142.018 17.7914 143.015 14.7725H138.126C137.623 15.5154 136.849 15.9941 135.978 15.9941C134.851 15.9941 133.884 15.1956 133.461 14.0545H138.495H138.498ZM135.98 8.54493C137.107 8.54493 138.075 9.3435 138.498 10.4846H133.463C133.888 9.3435 134.853 8.54493 135.98 8.54493Z" fill="#0CB1F3"/>
<path d="M58.0581 0H41.0508V4.21571H47.1938V19.1327H51.9151V4.21571H58.0581V0Z" fill="#0CB1F3"/>
<path d="M112.52 5.02873H109.509V1.31238H105.339V5.02873H102.328V8.80698H105.339V19.2503H109.509V8.80698H112.52V5.02873Z" fill="#0CB1F3"/>
<path d="M154.758 5.00397H152.85C151.44 5.00397 150.126 5.72001 149.022 6.81778V4.82239H144.852V19.2503H149.022V12.3479C149.022 11.861 149.16 11.3822 149.433 10.9798C150.035 10.0905 150.858 9.17223 152.018 9.17223H154.763V8.13223C154.763 8.13223 154.763 5.00397 154.758 5.00397Z" fill="#0CB1F3"/>
<path d="M127.041 9.97496C126.825 7.10464 124.41 4.82242 121.486 4.82242H121.437C120.12 4.82242 118.907 5.28671 117.952 6.05639V0.13623H113.781V19.2504H117.952V11.3678C117.952 10.0038 119.058 8.89988 120.42 8.89988C121.781 8.89988 122.887 10.0038 122.887 11.3678V19.2504H127.058V9.9729H127.041V9.97496Z" fill="#0CB1F3"/>
<path d="M82.1365 5.13599V6.47519C80.9954 5.56726 79.5715 5.02869 78.026 5.02869C74.2684 5.02869 71.2227 8.21265 71.2227 12.1395C71.2227 16.0663 74.2684 19.2503 78.026 19.2503C79.5715 19.2503 80.9954 18.7117 82.1365 17.8038V18.7303C82.1365 20.3068 80.8592 21.5861 79.2806 21.5861C78.1457 21.5861 77.1676 20.9258 76.7054 19.9663L76.695 19.9704H71.8644C72.3596 23.3649 75.2836 25.9731 78.8163 25.9731H79.2806C83.16 25.9731 86.3068 22.8284 86.3068 18.9469V5.13599H82.1365ZM78.6265 15.1873C76.9427 15.1873 75.5787 13.8233 75.5787 12.1395C75.5787 10.4557 76.9427 9.0917 78.6265 9.0917C80.3103 9.0917 81.6742 10.4557 81.6742 12.1395C81.6742 13.8233 80.3103 15.1873 78.6265 15.1873Z" fill="#0CB1F3"/>
</g>
</g>
<defs>
<clipPath id="clip0_467_1234">
<rect width="154.762" height="26" fill="white"/>
</clipPath>
<clipPath id="clip1_467_1234">
<rect width="154.762" height="25.9752" fill="white"/>
</clipPath>
</defs>
</svg>
