<svg width="70" height="70" viewBox="0 0 70 70" fill="none" xmlns="http://www.w3.org/2000/svg">
<path d="M65.1817 19.5082C65.1197 19.2928 65.0557 19.0788 64.9898 18.8661C64.9733 18.8131 64.9558 18.7611 64.9392 18.7083C64.889 18.5493 64.839 18.3902 64.7866 18.2328C64.7461 18.1106 64.7037 17.99 64.662 17.8689C64.6321 17.782 64.6032 17.6946 64.5727 17.6083C64.5308 17.4897 64.4869 17.3725 64.4436 17.2548C64.4116 17.1676 64.3805 17.0793 64.3477 16.9924C64.2977 16.8597 64.2457 16.7285 64.1941 16.5969C64.1667 16.5267 64.14 16.4558 64.1121 16.386C64.0542 16.2414 63.9944 16.0985 63.9347 15.9556C63.9116 15.9 63.8893 15.8439 63.8658 15.7886C63.8014 15.6368 63.7351 15.4869 63.6685 15.3371C63.6485 15.2919 63.6294 15.2459 63.6091 15.2009C63.5288 15.0224 63.4467 14.8454 63.3636 14.6695C63.3563 14.6543 63.3494 14.6383 63.3422 14.6231C63.2574 14.4443 63.1706 14.2673 63.0827 14.0912C63.0766 14.0792 63.0708 14.0667 63.0649 14.0546C62.9872 13.8999 62.9077 13.7472 62.8279 13.5947C62.8107 13.5619 62.7943 13.5285 62.7771 13.496C62.6951 13.3408 62.6112 13.1872 62.5266 13.0343C62.5108 13.0057 62.4956 12.9765 62.4798 12.9478C62.379 12.7672 62.2767 12.5882 62.1728 12.4109L62.1727 12.4107C62.0703 12.2359 61.9662 12.0629 61.8606 11.8917C61.859 11.8889 61.8575 11.8862 61.8558 11.8835C61.7506 11.7132 61.6441 11.5446 61.536 11.3775C61.5337 11.3741 61.5316 11.3706 61.5294 11.367C59.7266 8.58606 57.5037 6.29347 54.9581 4.618L55.3854 3.395C55.5915 2.80562 55.3941 2.1087 54.9449 1.83868C54.496 1.56847 53.9648 1.82707 53.7589 2.41681L53.3273 3.65233C48.4239 1.0685 43.0404 0.99088 38.0677 3.45901C32.8135 6.06733 28.6475 11.2049 26.3375 17.9253C26.1343 18.5163 26.3346 19.2116 26.7851 19.4781L44.1994 29.7863L39.1848 44.1439H24.6337L20.8153 34.2224C20.663 33.8267 20.3543 33.5775 20.0168 33.5775H14.5505C14.2417 33.5775 13.9545 33.7866 13.7912 34.1308C13.6277 34.475 13.6114 34.9053 13.7478 35.2693L19.8139 51.471C19.9643 51.8727 20.2758 52.1273 20.617 52.1273H21.1681L19.5848 56.8175C19.4621 57.1806 19.4879 57.6004 19.6529 57.9333C19.8179 58.2661 20.1001 58.4669 20.4028 58.4669H24.5112C24.8535 58.4669 25.1655 58.2108 25.3155 57.8071L27.4248 52.1272H36.3966L34.9252 56.3397C34.9108 56.3807 34.9032 56.4229 34.8927 56.4644C28.8185 56.6362 23.871 59.1796 20.5878 61.5057C16.3223 64.5279 13.914 67.7752 13.8135 67.9122C13.4538 68.4018 13.4649 69.1809 13.8379 69.6534C14.2103 70.1259 14.8048 70.1121 15.1652 69.6233C15.1883 69.5922 17.512 66.4714 21.5407 63.6318C25.2323 61.0298 31.1622 58.1326 38.4483 59.1134C52.438 60.9945 57.8049 69.4543 57.8558 69.5365C58.0412 69.8413 58.3143 70 58.5901 70C58.7955 70 59.0024 69.9121 59.1755 69.7307C59.5809 69.306 59.6471 68.5305 59.3234 67.9985C59.0918 67.618 53.4825 58.6573 38.6399 56.6614C38.0303 56.5794 37.4309 56.5257 36.84 56.4925L38.3646 52.1273H44.3485L46.4579 57.8073C46.6077 58.211 46.9201 58.467 47.2622 58.467H51.3706C51.6732 58.467 51.9554 58.2663 52.1204 57.9335C52.2854 57.6006 52.3113 57.1808 52.1886 56.8177L50.6053 52.1275H50.9954C51.4894 52.1275 51.8901 51.602 51.8901 50.9533V45.3179C51.8901 44.6696 51.4896 44.1439 50.9954 44.1439H41.1529L45.8305 30.7518L63.4987 41.2099C63.6153 41.2791 63.7408 41.3138 63.8664 41.3138C63.9735 41.3138 64.0809 41.2884 64.1831 41.2378C64.4049 41.1275 64.5845 40.9063 64.6819 40.6223C66.9921 33.9019 67.1697 26.4036 65.1817 19.5082ZM23.952 56.1191H21.7777L23.1253 52.1273H25.4344L23.952 56.1191ZM49.996 56.1191H47.8216L46.3392 52.1273H48.6483L49.996 56.1191ZM50.1009 49.7793H49.2304H44.9079H26.8656H22.5431H21.1742L15.9871 35.9254H19.4665L23.285 45.8471C23.4373 46.2426 23.746 46.492 24.0836 46.492H50.1011V49.7793H50.1009ZM54.2548 33.1622L46.5762 28.6171L44.9454 27.6516L37.4911 23.2393C39.833 16.1082 43.2213 11.1108 47.5712 8.3757C49.4924 7.16775 51.2049 6.68192 52.3377 6.48661C52.7762 6.41098 53.1305 6.37744 53.3725 6.36456C53.5201 6.61319 53.7269 6.98459 53.9641 7.46479C54.584 8.72062 55.4168 10.7459 55.9835 13.4532C57.2632 19.5635 56.6813 26.1892 54.2548 33.1622Z" fill="#0CB1F3"/>
<path d="M10.7252 21.5304C13.9327 21.5304 16.5424 18.1059 16.5424 13.8968C16.5424 9.68775 13.9327 6.26319 10.7252 6.26319C7.51773 6.26319 4.9082 9.68775 4.9082 13.8968C4.9082 18.1059 7.51773 21.5304 10.7252 21.5304ZM10.7252 8.61127C12.9461 8.61127 14.753 10.9822 14.753 13.8968C14.753 16.8114 12.9463 19.1824 10.7252 19.1824C8.50416 19.1824 6.6974 16.8114 6.6974 13.8968C6.6974 10.9822 8.50416 8.61127 10.7252 8.61127Z" fill="#0CB1F3"/>
<path d="M10.7366 5.16567C11.2308 5.16567 11.6313 4.64031 11.6313 3.99163V1.17404C11.6311 0.525544 11.2308 0 10.7366 0C10.2424 0 9.8418 0.525544 9.8418 1.17404V3.99181C9.8418 4.64031 10.2424 5.16567 10.7366 5.16567Z" fill="#0CB1F3"/>
<path d="M10.7366 22.7765C10.2424 22.7765 9.8418 23.3018 9.8418 23.9505V26.5334C9.8418 27.1818 10.2423 27.7075 10.7366 27.7075C11.2309 27.7075 11.6313 27.1819 11.6313 26.5334V23.9505C11.6311 23.3018 11.2308 22.7765 10.7366 22.7765Z" fill="#0CB1F3"/>
<path d="M17.3574 14.0885C17.3574 14.737 17.7579 15.2627 18.2521 15.2627H20.2204C20.7146 15.2627 21.1151 14.7372 21.1151 14.0885C21.1151 13.4402 20.7147 12.9145 20.2204 12.9145H18.2521C17.7579 12.9145 17.3574 13.44 17.3574 14.0885Z" fill="#0CB1F3"/>
<path d="M0.89467 15.2625H3.04193C3.53611 15.2625 3.9366 14.737 3.9366 14.0883C3.9366 13.44 3.53625 12.9143 3.04193 12.9143H0.89467C0.400625 12.9143 0 13.4398 0 14.0883C0 14.737 0.400625 15.2625 0.89467 15.2625Z" fill="#0CB1F3"/>
<path d="M16.6816 20.2713C16.3321 19.8129 15.7658 19.8125 15.4165 20.2712C15.067 20.7294 15.067 21.473 15.4162 21.9316L16.8535 23.8181C17.0283 24.0475 17.2572 24.162 17.4863 24.162C17.7152 24.162 17.9442 24.0474 18.1188 23.8181C18.4682 23.3599 18.4682 22.6163 18.119 22.1579L16.6816 20.2713Z" fill="#0CB1F3"/>
<path d="M4.59237 7.73246C4.76718 7.9615 4.99603 8.0763 5.22502 8.0763C5.45387 8.0763 5.68286 7.9615 5.85767 7.73228C6.20689 7.27383 6.20689 6.53031 5.85754 6.07205L4.41976 4.18549C4.07041 3.72741 3.50395 3.72723 3.15446 4.18567C2.80524 4.6443 2.80524 5.38764 3.15473 5.84609L4.59237 7.73246Z" fill="#0CB1F3"/>
<path d="M16.0488 8.07611C16.2776 8.07611 16.5068 7.96132 16.6814 7.7321L18.1188 5.84609C18.4682 5.38764 18.4682 4.6443 18.1188 4.18585C17.7697 3.72741 17.2027 3.72741 16.8536 4.18585L15.4164 6.07205C15.0669 6.53031 15.0669 7.27383 15.4164 7.7321C15.5908 7.96132 15.8198 8.07611 16.0488 8.07611Z" fill="#0CB1F3"/>
<path d="M4.41973 23.8183L5.8575 21.9318C6.20686 21.4733 6.20686 20.73 5.8575 20.2715C5.50842 19.8131 4.94141 19.8131 4.59233 20.2715L3.1547 22.1583C2.8052 22.6165 2.8052 23.3601 3.1547 23.8183C3.32924 24.0477 3.55836 24.1622 3.78721 24.1622C4.01606 24.1622 4.24519 24.0475 4.41973 23.8183Z" fill="#0CB1F3"/>
<path d="M68.7887 21.7685C68.3002 21.8656 67.9638 22.4637 68.0375 23.1047C68.0692 23.3809 68.0938 23.5704 68.1142 23.7275C68.1571 24.0584 68.1766 24.2093 68.2127 24.8319C68.2481 25.4483 68.6403 25.9174 69.1038 25.9174C69.1263 25.9174 69.1492 25.9161 69.172 25.9138C69.6646 25.8648 70.0338 25.3014 69.9968 24.6549C69.9566 23.9545 69.9299 23.732 69.8784 23.3338C69.8594 23.1876 69.8365 23.0115 69.8069 22.7543C69.7332 22.1131 69.2783 21.6712 68.7887 21.7685Z" fill="#0CB1F3"/>
<path d="M65.742 13.8524C66.0307 14.541 66.2999 15.2674 66.5419 16.0113C66.8184 16.8613 67.0669 17.7566 67.2807 18.6728C67.3987 19.1784 67.7529 19.5035 68.1358 19.5035C68.2226 19.5035 68.3108 19.487 68.3978 19.452C68.8705 19.2622 69.1362 18.6059 68.9917 17.9858C68.7594 16.9902 68.4889 16.0159 68.1876 15.0895C67.9223 14.274 67.627 13.4768 67.3098 12.7206C66.4563 10.6846 65.4155 8.86171 64.2158 7.3014C63.8651 6.84477 63.2986 6.84803 62.9508 7.30865C62.6028 7.76909 62.6053 8.51262 62.9563 8.9687C64.0339 10.3705 64.9712 12.0137 65.742 13.8524Z" fill="#0CB1F3"/>
</svg>
