<svg width="70" height="70" viewBox="0 0 70 70" fill="none" xmlns="http://www.w3.org/2000/svg">
<circle cx="35" cy="35" r="33.5" stroke="#0CB1F3" stroke-width="3"/>
<path d="M41.8045 34.4815H44.7211C44.7211 41.3951 44.7211 53.3556 44.7211 54.1852C44.7211 55.2222 44.7211 58.3333 41.8045 58.3333C39.4711 58.3333 38.8878 56.2593 38.8878 55.2222V34.4815H41.8045ZM41.8045 34.4815V16.8518M41.8045 11.6667V16.8518M36.9434 11.6667C36.9434 13.3951 37.9156 16.8518 41.8045 16.8518M41.8045 16.8518C45.6934 16.8518 46.6656 13.3951 46.6656 11.6667" stroke="#0CB1F3" stroke-width="3"/>
<path d="M31.1109 36.9444V11.6667C27.8702 12.3148 21.3887 15.1667 21.3887 21.3889C21.3887 27.6111 21.3887 34.3518 21.3887 36.9444H25.2776M31.1109 36.9444V55.4167C31.1109 56.3889 30.5276 58.3333 28.1942 58.3333C25.2776 58.3333 25.2776 56.3889 25.2776 55.4167C25.2776 54.6389 25.2776 42.7778 25.2776 36.9444M31.1109 36.9444H25.2776" stroke="#0CB1F3" stroke-width="3"/>
</svg>
