<svg width="71" height="70" viewBox="0 0 71 70" fill="none" xmlns="http://www.w3.org/2000/svg">
<path d="M49.6158 35.345H43.0595C42.0569 35.345 41.0809 35.6724 40.3117 36.267L38.865 37.3852C38.4589 37.6992 37.941 37.8721 37.4069 37.8721H34.9719C34.4379 37.8721 33.9201 37.6992 33.5139 37.3852L32.0671 36.267C31.2979 35.6724 30.3221 35.345 29.3193 35.345H22.7632C20.4016 35.345 18.4805 37.1207 18.4805 39.3033V44.6424C18.4805 46.825 20.4015 48.601 22.7632 48.601H28.2554C29.394 48.601 30.4657 48.1927 31.2735 47.4512L33.5402 45.3703C33.9566 44.988 34.5353 44.7673 35.1282 44.7646L36.1841 44.7595L37.2505 44.7646C37.8434 44.7673 38.4219 44.988 38.8382 45.3703L41.1049 47.4511C41.9125 48.1927 42.9846 48.601 44.1231 48.601H49.6154C51.9769 48.601 53.8981 46.825 53.8981 44.6424V39.3033C53.8985 37.1207 51.9774 35.345 49.6158 35.345ZM22.054 42.4321C21.6863 42.0304 21.7329 41.4233 22.1582 41.0758L25.4855 38.3581C25.9106 38.0109 26.5534 38.0547 26.9214 38.4566C27.2891 38.8582 27.2425 39.4654 26.8174 39.8129L23.49 42.5305C23.2975 42.6878 23.0604 42.7649 22.8244 42.7649C22.5392 42.7647 22.2555 42.6521 22.054 42.4321ZM29.8321 41.4196L24.8534 45.4858C24.6609 45.6431 24.4238 45.7202 24.1878 45.7202C23.9025 45.7202 23.6188 45.6075 23.4174 45.3875C23.0497 44.9858 23.0963 44.3787 23.5215 44.0313L28.5002 39.965C28.9251 39.6177 29.5682 39.6614 29.9362 40.0633C30.3039 40.465 30.2574 41.0721 29.8321 41.4196ZM42.6538 42.4321C42.2861 42.0304 42.3326 41.4233 42.7579 41.0758L46.0854 38.3581C46.5104 38.0109 47.1532 38.0547 47.5214 38.4566C47.8891 38.8582 47.8425 39.4654 47.4173 39.8129L44.0898 42.5305C43.8975 42.6878 43.6602 42.7649 43.4243 42.7649C43.139 42.7647 42.8551 42.6521 42.6538 42.4321ZM50.4318 41.4196L45.453 45.4858C45.2607 45.6431 45.0236 45.7202 44.7876 45.7202C44.5023 45.7202 44.2186 45.6075 44.0172 45.3875C43.6495 44.9858 43.6961 44.3787 44.1213 44.0313L49.1 39.965C49.5249 39.6177 50.1677 39.6614 50.536 40.0633C50.9037 40.465 50.8572 41.0721 50.4318 41.4196Z" fill="#585858"/>
<path d="M12.8778 30.248C10.7493 30.248 9.01758 28.6123 9.01758 26.6019C9.01758 24.5915 10.7491 22.956 12.8778 22.956C15.0062 22.956 16.7378 24.5915 16.7378 26.6019C16.7378 28.6123 15.0064 30.248 12.8778 30.248ZM12.8778 24.8791C11.8719 24.8791 11.0537 25.6519 11.0537 26.6019C11.0537 27.5519 11.8719 28.3249 12.8778 28.3249C13.8835 28.3249 14.7017 27.5519 14.7017 26.6019C14.7017 25.6519 13.8835 24.8791 12.8778 24.8791Z" fill="#585858"/>
<path d="M5.23211 24.1458C2.34707 24.1458 0 21.929 0 19.204C0 16.479 2.34722 14.2622 5.23211 14.2622C8.117 14.2622 10.4642 16.4792 10.4642 19.204C10.4642 21.929 8.11715 24.1458 5.23211 24.1458ZM5.23211 16.1852C3.46977 16.1852 2.03607 17.5395 2.03607 19.2039C2.03607 20.8685 3.46992 22.2225 5.23211 22.2225C6.99429 22.2225 8.42814 20.8684 8.42814 19.2039C8.42814 17.5395 6.99429 16.1852 5.23211 16.1852Z" fill="#585858"/>
<path d="M15.916 20.1096C13.8535 20.1096 12.1758 18.5249 12.1758 16.5771C12.1758 14.629 13.8535 13.0444 15.916 13.0444C17.9783 13.0444 19.656 14.629 19.656 16.5771C19.656 18.5249 17.9783 20.1096 15.916 20.1096ZM15.916 14.9675C14.9764 14.9675 14.2119 15.6894 14.2119 16.5771C14.2119 17.4647 14.9762 18.1865 15.916 18.1865C16.8557 18.1865 17.6199 17.4647 17.6199 16.5771C17.6199 15.6894 16.8556 14.9675 15.916 14.9675Z" fill="#585858"/>
<path d="M9.34782 13.2161C5.49013 13.2161 2.35156 10.2518 2.35156 6.60803C2.35156 2.96427 5.49013 0 9.34782 0C13.2057 0 16.3442 2.96427 16.3442 6.60803C16.3442 10.2518 13.2057 13.2161 9.34782 13.2161ZM9.34782 1.92323C6.61284 1.92323 4.38764 4.02496 4.38764 6.60817C4.38764 9.19138 6.61284 11.2931 9.34782 11.2931C12.0829 11.2931 14.3081 9.19138 14.3081 6.60817C14.3081 4.02496 12.0829 1.92323 9.34782 1.92323Z" fill="#585858"/>
<path d="M9.34782 13.2161C5.49013 13.2161 2.35156 10.2518 2.35156 6.60803C2.35156 2.96427 5.49013 0 9.34782 0C13.2057 0 16.3442 2.96427 16.3442 6.60803C16.3442 10.2518 13.2057 13.2161 9.34782 13.2161ZM9.34782 1.92323C6.61284 1.92323 4.38764 4.02496 4.38764 6.60817C4.38764 9.19138 6.61284 11.2931 9.34782 11.2931C12.0829 11.2931 14.3081 9.19138 14.3081 6.60817C14.3081 4.02496 12.0829 1.92323 9.34782 1.92323Z" fill="#585858"/>
<path d="M68.983 47.4974C68.4208 47.4974 67.9652 47.067 67.965 46.536L67.9629 39.9865C67.9627 39.4553 68.4185 39.0248 68.9805 39.0247C68.9808 39.0247 68.9809 39.0247 68.9809 39.0247C69.543 39.0247 69.9988 39.4549 69.999 39.9858L70.0011 46.5356C70.0012 47.0665 69.5454 47.4971 68.983 47.4974Z" fill="#585858"/>
<path d="M68.9812 51.738C68.419 51.738 67.9633 51.3077 67.9632 50.7766L67.9629 49.7377C67.9627 49.2065 68.4185 48.7762 68.9808 48.776C69.543 48.776 69.9988 49.2064 69.999 49.7374L69.9993 50.7763C69.9994 51.3075 69.5436 51.7379 68.9812 51.738Z" fill="#585858"/>
<path d="M68.9809 37.4127C68.4185 37.4127 67.9629 36.9823 67.9629 36.4511V25.8103C67.9629 25.2793 68.4185 24.8488 68.9809 24.8488C69.5433 24.8488 69.999 25.2793 69.999 25.8103V36.4511C69.999 36.9822 69.5433 37.4127 68.9809 37.4127Z" fill="#585858"/>
<path d="M36.1881 50.4302C34.3568 50.4302 32.8672 51.8372 32.8672 53.5668C32.8672 55.2966 34.3568 56.7036 36.1881 56.7036C38.0195 56.7036 39.5092 55.2966 39.5092 53.5668C39.509 51.8372 38.0194 50.4302 36.1881 50.4302ZM36.1881 54.7804C35.4797 54.7804 34.9033 54.2359 34.9033 53.5667C34.9033 52.8974 35.4795 52.3531 36.1881 52.3531C36.8967 52.3531 37.4731 52.8974 37.4731 53.5667C37.4731 54.2359 36.8965 54.7804 36.1881 54.7804Z" fill="#585858"/>
<path d="M52.6745 8.48297C50.5843 8.48297 48.8836 10.0893 48.8836 12.0636C48.8836 14.0377 50.5841 15.6441 52.6745 15.6441C55.7913 15.6441 58.3272 18.0392 58.3272 20.9831V28.4173V37.1356V38.0087H57.4193V37.8617C57.4193 35.1161 55.6401 32.8292 53.307 32.3712C53.0956 31.656 52.8081 30.9702 52.4544 30.3219C52.4523 30.3182 52.4504 30.3143 52.4482 30.3106C52.3786 30.1834 52.3066 30.0578 52.2318 29.9336C52.2299 29.9304 52.228 29.9272 52.2259 29.924C52.1048 29.7235 51.9757 29.528 51.8419 29.3354C51.6417 29.0472 51.429 28.7673 51.2014 28.4988C51.1973 28.4937 51.193 28.4886 51.1886 28.4834C51.1038 28.384 51.0168 28.2863 50.9286 28.1895C50.9085 28.1677 50.8886 28.1458 50.8685 28.1242C50.7841 28.033 50.6983 27.9432 50.6106 27.8548C50.5876 27.8317 50.564 27.8089 50.541 27.7858C50.4514 27.6971 50.361 27.6091 50.2683 27.5232C50.2597 27.5152 50.2511 27.5078 50.2425 27.4999C49.949 27.2296 49.6395 26.9746 49.3171 26.7344C49.2739 26.7024 49.2314 26.6699 49.1878 26.6384C49.1055 26.5788 49.0218 26.521 48.9377 26.4636C48.8836 26.4264 48.8292 26.3897 48.7743 26.3538C48.6936 26.3006 48.6124 26.2482 48.5302 26.1969C48.4687 26.1585 48.4064 26.1213 48.3441 26.084C48.2646 26.0365 48.1853 25.9888 48.1048 25.9431C48.0322 25.9021 47.958 25.8629 47.8844 25.8233C47.7692 25.7613 47.6531 25.7011 47.5356 25.6425C47.4371 25.5938 47.3384 25.5448 47.2383 25.4986C47.1691 25.4666 47.0983 25.4368 47.0284 25.4062C46.941 25.3679 46.8537 25.3298 46.7652 25.2937C46.6932 25.2642 46.6208 25.2361 46.5483 25.208C46.4578 25.1731 46.3672 25.1391 46.2755 25.1062C46.2047 25.0808 46.134 25.0558 46.0625 25.0317C45.9628 24.9981 45.8621 24.9663 45.7609 24.9351C45.6966 24.9152 45.6327 24.8946 45.568 24.876C45.4277 24.8354 45.2864 24.7975 45.1439 24.7619C45.117 24.7552 45.0908 24.7474 45.0641 24.7409C44.8961 24.7001 44.7264 24.6634 44.5555 24.6298C44.4979 24.6184 44.4394 24.6089 44.3815 24.5982C44.2643 24.5768 44.1463 24.5563 44.0276 24.5384C43.9614 24.5284 43.8943 24.5193 43.8277 24.5103C43.7139 24.4951 43.5996 24.4813 43.4848 24.4691C43.4182 24.462 43.3512 24.4549 43.2842 24.4489C43.1615 24.4381 43.038 24.4295 42.9141 24.4223C42.8558 24.4189 42.7977 24.4143 42.739 24.4117C42.5571 24.4036 42.3743 24.3986 42.1902 24.3986H30.0409C29.8588 24.3986 29.6778 24.4036 29.4978 24.4116C29.4394 24.4143 29.3815 24.4187 29.3236 24.4221C29.2012 24.4294 29.0795 24.4375 28.9586 24.4485C28.8918 24.4545 28.8251 24.4616 28.7587 24.4687C28.6459 24.4807 28.5336 24.4942 28.4217 24.5092C28.3548 24.5181 28.2879 24.5274 28.2215 24.5375C28.1067 24.555 27.9927 24.5747 27.8793 24.5954C27.8191 24.6063 27.7585 24.6164 27.6986 24.6283C27.5559 24.6566 27.4142 24.6879 27.2735 24.7211C27.245 24.728 27.2158 24.7335 27.1875 24.7405C27.0211 24.7811 26.8566 24.8258 26.6933 24.8734C26.6361 24.8901 26.5798 24.9086 26.523 24.926C26.4156 24.9589 26.3087 24.9927 26.2028 25.0285C26.1361 25.0512 26.0699 25.075 26.0039 25.0988C25.9088 25.133 25.8144 25.168 25.7208 25.2045C25.6526 25.231 25.5846 25.2578 25.517 25.2855C25.4252 25.3231 25.3344 25.3625 25.2437 25.4022C25.1781 25.4311 25.1122 25.4595 25.0472 25.4895C24.9499 25.5345 24.8543 25.5818 24.7587 25.6293C24.7032 25.6569 24.6466 25.6831 24.5916 25.7116C24.4506 25.7844 24.3118 25.8602 24.1744 25.9384C24.108 25.9764 24.0429 26.0164 23.9773 26.0555C23.9008 26.1009 23.8245 26.1464 23.7494 26.1937C23.6784 26.2382 23.6084 26.2844 23.5385 26.3306C23.4714 26.3749 23.4043 26.4196 23.3383 26.4652C23.2666 26.5146 23.1957 26.5645 23.1253 26.6156C23.0638 26.6602 23.003 26.7056 22.9424 26.7514C22.8707 26.8055 22.7992 26.8595 22.7289 26.915C22.6746 26.9581 22.6216 27.0026 22.5682 27.0467C22.2994 27.268 22.0415 27.5008 21.7957 27.7445C21.7574 27.7826 21.7184 27.8199 21.6807 27.8585C21.6085 27.9321 21.5385 28.0073 21.4684 28.0827C21.4299 28.1243 21.3915 28.1659 21.3535 28.2081C21.2842 28.2853 21.2159 28.3636 21.1488 28.4427C21.1146 28.483 21.0809 28.5239 21.0471 28.5646C20.9785 28.6481 20.9105 28.7319 20.8441 28.817C20.8196 28.8489 20.7959 28.8816 20.7714 28.9138C20.5319 29.2302 20.3095 29.5586 20.1069 29.8991C20.0977 29.9143 20.0881 29.9294 20.0789 29.9447C20.0186 30.0474 19.9608 30.1517 19.9038 30.2564C19.8851 30.2906 19.8662 30.3247 19.8478 30.3594C19.7938 30.4615 19.7416 30.5645 19.691 30.6683C19.6733 30.7045 19.656 30.7408 19.6388 30.7773C19.5881 30.8839 19.5388 30.991 19.4917 31.0994C19.48 31.1269 19.4688 31.155 19.4572 31.1826C19.2931 31.5709 19.1512 31.9695 19.0352 32.3785C18.9358 32.7288 18.8547 33.0859 18.7928 33.4491C18.8545 33.0857 18.9358 32.7288 19.0352 32.3785C16.7216 32.8544 14.9623 35.1309 14.9623 37.8611V38.0081H13.68C12.3175 38.0081 11.209 39.055 11.209 40.3418V43.6009C11.209 44.8877 12.3175 45.9348 13.68 45.9348H14.9623V46.0819C14.9623 48.7481 16.6301 50.9369 18.9652 51.5151C18.8646 51.1729 18.7865 50.8222 18.7334 50.4638C18.7871 50.8219 18.8646 51.1731 18.9652 51.5151C19.1236 52.0537 19.339 52.5702 19.6042 53.0587C19.6074 53.0645 19.6104 53.0702 19.6136 53.0759C19.6653 53.1705 19.7186 53.264 19.7739 53.3566C19.7757 53.3593 19.7772 53.3618 19.7789 53.3647C20.0041 53.7393 20.2597 54.0955 20.5422 54.4305C20.5496 54.439 20.5567 54.4479 20.5639 54.4564C20.6262 54.5298 20.6903 54.6019 20.7552 54.6731C20.7716 54.6913 20.7883 54.7094 20.8049 54.7274C20.8678 54.7952 20.9316 54.8621 20.9968 54.9279C21.0147 54.946 21.033 54.964 21.0512 54.9819C21.1183 55.0487 21.1862 55.1148 21.2556 55.1794C21.2587 55.1824 21.2624 55.1853 21.2657 55.1885C21.4266 55.3376 21.5939 55.4809 21.7667 55.618C21.7685 55.6194 21.77 55.621 21.7718 55.6222C21.8367 55.6735 21.903 55.723 21.9696 55.7725C22.0039 55.798 22.0379 55.8238 22.0726 55.8489C22.1338 55.8932 22.1961 55.9363 22.2585 55.9791C22.3002 56.0077 22.3424 56.0359 22.3846 56.0638C22.4449 56.1036 22.5057 56.143 22.5671 56.1812C22.614 56.2106 22.6615 56.2389 22.7089 56.2673C22.7685 56.3029 22.8279 56.3386 22.8882 56.373C22.9451 56.4052 23.0031 56.4356 23.0607 56.4667C23.1473 56.5133 23.2346 56.5586 23.323 56.6023C23.3957 56.6383 23.4686 56.6745 23.5425 56.7086C23.595 56.7328 23.6482 56.7553 23.7011 56.7785C23.767 56.8073 23.8329 56.8361 23.8996 56.8634C23.9535 56.8855 24.0081 56.9067 24.0625 56.9278C24.1308 56.9543 24.1996 56.9799 24.2687 57.0047C24.3221 57.024 24.3754 57.0429 24.4291 57.0611C24.5047 57.0866 24.581 57.1107 24.6575 57.1342C24.7056 57.149 24.7536 57.1646 24.802 57.1787C24.9112 57.2103 25.0211 57.2399 25.132 57.2674C25.1532 57.2727 25.1742 57.2784 25.1955 57.2835C25.3179 57.3131 25.4414 57.3399 25.5657 57.3644C25.6096 57.3733 25.6541 57.3804 25.6983 57.3885C25.7864 57.4045 25.8748 57.4198 25.9639 57.4334C26.0141 57.4409 26.0645 57.4478 26.1152 57.4545C26.2008 57.466 26.2872 57.4764 26.3738 57.4857C26.424 57.4909 26.4743 57.4962 26.5246 57.5008C26.6174 57.509 26.7107 57.5154 26.8043 57.5208C26.8481 57.5235 26.8919 57.5268 26.9359 57.5288C27.0732 57.5349 27.211 57.5386 27.3499 57.5386L28.7701 57.5375C30.2461 57.5292 30.9734 57.555 31.466 58.1879C32.6553 59.7159 34.1949 60.4905 36.042 60.4905C38.2781 60.4905 39.8015 59.2153 40.8799 58.1029L40.9983 57.9805C41.4557 57.5086 42.0872 57.4999 43.2594 57.5281C43.487 57.5334 43.7192 57.5385 43.9549 57.5385H45.1046C45.2423 57.5385 45.3791 57.5348 45.5153 57.5288C45.5592 57.5268 45.6028 57.5235 45.6465 57.5208C45.739 57.5154 45.8316 57.5092 45.9233 57.5009C45.9735 57.4965 46.0233 57.4912 46.0734 57.4859C46.1592 57.4768 46.2448 57.4664 46.3299 57.4549C46.3798 57.4482 46.4298 57.4413 46.4794 57.4339C46.5678 57.4206 46.6554 57.4055 46.7427 57.3894C46.7867 57.3814 46.8309 57.3741 46.8747 57.3654C46.9935 57.3419 47.1113 57.3161 47.2283 57.2881C47.248 57.2834 47.2676 57.2788 47.2873 57.2738C47.4036 57.2451 47.5188 57.214 47.6332 57.1808C47.6804 57.1671 47.7268 57.152 47.7737 57.1376C47.8506 57.1139 47.9276 57.0896 48.0033 57.064C48.0562 57.0462 48.1085 57.0274 48.1609 57.0086C48.2299 56.9838 48.2986 56.9582 48.3669 56.9317C48.4206 56.9109 48.4744 56.8899 48.5275 56.8681C48.594 56.8409 48.6599 56.8121 48.7255 56.7834C48.7777 56.7606 48.8301 56.7382 48.8818 56.7144C48.9539 56.6812 49.0246 56.646 49.0955 56.6107C49.1804 56.5687 49.2646 56.5252 49.3478 56.4807C49.4097 56.4475 49.472 56.4146 49.533 56.3801C49.5917 56.3469 49.649 56.3119 49.7065 56.2775C49.7552 56.2483 49.8039 56.2193 49.8522 56.1892C49.912 56.1517 49.9712 56.1134 50.03 56.0745C50.0733 56.046 50.1163 56.0171 50.1589 55.9879C50.2197 55.9462 50.2803 55.904 50.3398 55.8609C50.3766 55.8342 50.4128 55.8069 50.4491 55.7798C50.5126 55.7324 50.5761 55.6851 50.6379 55.6359C50.6544 55.6228 50.6704 55.6091 50.6867 55.596C50.9203 55.4084 51.1427 55.209 51.354 54.9993C51.3732 54.9804 51.3926 54.9616 51.4117 54.9425C51.4747 54.8787 51.5365 54.8134 51.5975 54.7476C51.6162 54.7274 51.6347 54.7071 51.6533 54.6868C51.7154 54.6182 51.7766 54.5489 51.8365 54.4785C51.8481 54.4648 51.8594 54.451 51.8709 54.4372C52.1474 54.1074 52.3977 53.7571 52.6182 53.389C52.6202 53.3856 52.6223 53.3823 52.6242 53.3791C52.6778 53.2893 52.7294 53.1983 52.7794 53.1067C52.7846 53.0973 52.7895 53.0879 52.7947 53.0786C52.8447 52.9859 52.8933 52.8922 52.9398 52.7973C52.9404 52.7959 52.941 52.7946 52.9417 52.7933C53.1366 52.3946 53.2984 51.9786 53.4237 51.5486C53.5215 51.2135 53.5966 50.8699 53.6488 50.5194C53.597 50.8701 53.5215 51.2135 53.4237 51.5486C55.699 51.0382 57.4187 48.7814 57.4187 46.0819V45.9348H58.3266V47.7881V57.4999C58.3266 60.4439 55.7907 62.8388 52.6739 62.8388H51.879V62.029H53.1417C54.4465 62.029 55.5078 60.9318 55.5078 59.5834C55.5078 59.0523 55.0522 58.6218 54.4897 58.6218C53.9273 58.6218 53.4717 59.0523 53.4717 59.5834C53.4717 59.9023 53.2764 60.1059 53.1417 60.1059H48.5802C48.4455 60.1059 48.25 59.9023 48.25 59.5834C48.25 59.0523 47.7944 58.6218 47.232 58.6218C46.6697 58.6218 46.2139 59.0523 46.2139 59.5834C46.2139 60.9318 47.2754 62.029 48.5802 62.029H49.843V62.8388H47.5887C45.4984 62.8388 43.7978 64.4451 43.7978 66.4193C43.7978 68.3936 45.4983 70 47.5887 70H52.6739C59.9713 70 65.9084 64.3924 65.9084 57.4999V47.7881V39.0698V37.1356V28.4173V20.9831C65.909 14.0906 59.9718 8.48297 52.6745 8.48297ZM21.9395 30.7456C21.9421 30.7414 21.9447 30.737 21.9474 30.7329C22.0058 30.6377 22.0661 30.5438 22.1282 30.451C22.1299 30.4485 22.1314 30.4461 22.1332 30.4437C22.3808 30.0745 22.6565 29.724 22.9577 29.3945C22.9731 29.3779 22.9882 29.3612 23.0037 29.3444C23.0707 29.272 23.1389 29.2007 23.2083 29.1304C23.2238 29.1149 23.2395 29.0995 23.255 29.0841C23.471 28.869 23.6983 28.6645 23.9358 28.4706C23.9624 28.4491 23.9883 28.427 24.0148 28.4059C24.0809 28.3532 24.1482 28.3019 24.2156 28.2509C24.2531 28.2227 24.2908 28.1945 24.3287 28.1669C24.3942 28.119 24.4599 28.0717 24.5267 28.0257C24.5685 27.9967 24.6113 27.9686 24.6537 27.9403C24.7563 27.8717 24.8602 27.8054 24.9656 27.7407C25.0282 27.7024 25.0905 27.6635 25.1541 27.6264C25.2131 27.5922 25.2734 27.5598 25.3333 27.5267C25.3917 27.4944 25.4499 27.4622 25.5092 27.431C25.5684 27.3999 25.6283 27.3697 25.6883 27.3398C25.7517 27.3082 25.8156 27.2774 25.8799 27.2471C25.9372 27.2202 25.9945 27.1931 26.0526 27.167C26.1298 27.1326 26.2081 27.0995 26.2866 27.067C26.3329 27.0477 26.3786 27.0276 26.4252 27.0089C26.5462 26.9609 26.6685 26.9155 26.7919 26.8722C26.8393 26.8556 26.8875 26.8402 26.9352 26.8244C27.0199 26.7962 27.1048 26.7686 27.1905 26.7427C27.2428 26.7269 27.2953 26.7116 27.3481 26.6967C27.4341 26.6722 27.5208 26.6489 27.608 26.6269C27.6573 26.6143 27.7063 26.6014 27.7561 26.5895C27.8695 26.5626 27.9838 26.5377 28.0986 26.5147C28.1214 26.5102 28.144 26.5048 28.1669 26.5002C28.3039 26.4737 28.4425 26.4506 28.5817 26.43C28.6251 26.4236 28.669 26.4184 28.7126 26.4125C28.8123 26.3991 28.9123 26.3868 29.0129 26.3764C29.0629 26.3712 29.113 26.3665 29.1634 26.3619C29.264 26.3529 29.3652 26.3459 29.4667 26.3401C29.5119 26.3375 29.557 26.3344 29.6023 26.3323C29.7478 26.326 29.894 26.3219 30.0412 26.3219H42.1905C42.3395 26.3219 42.4878 26.326 42.6351 26.3325C42.681 26.3345 42.7264 26.3375 42.7719 26.3402C42.8757 26.3462 42.979 26.3535 43.0818 26.3626C43.1315 26.3669 43.1811 26.3716 43.2306 26.3767C43.3364 26.3875 43.4417 26.4005 43.5465 26.4147C43.5866 26.4202 43.6269 26.4249 43.6669 26.4307C43.8085 26.4516 43.9494 26.4753 44.0889 26.5021C44.1184 26.5078 44.1477 26.5146 44.1773 26.5206C44.288 26.543 44.3984 26.5669 44.5076 26.5928C44.5558 26.6043 44.6041 26.6167 44.6522 26.6288C44.744 26.6522 44.8354 26.6769 44.9264 26.7026C44.9752 26.7167 45.0243 26.7304 45.073 26.7451C45.1728 26.7751 45.2718 26.8072 45.3702 26.8402C45.4052 26.8521 45.4408 26.8629 45.4757 26.875C45.6037 26.9197 45.7303 26.967 45.8556 27.0169C45.9001 27.0344 45.944 27.0535 45.9882 27.0717C46.072 27.1063 46.1554 27.1418 46.2381 27.1786C46.2898 27.2018 46.3414 27.2254 46.3925 27.2494C46.4682 27.2848 46.5432 27.3213 46.6177 27.3586C46.6679 27.3837 46.7184 27.4085 46.768 27.4343C46.8549 27.4796 46.9407 27.5267 47.0259 27.5744C47.0854 27.6078 47.1443 27.6417 47.2029 27.6762C47.2873 27.7259 47.371 27.776 47.4537 27.828C47.5063 27.8612 47.5579 27.8957 47.6098 27.9297C47.6703 27.9696 47.7306 28.0099 47.7899 28.0509C47.8442 28.0884 47.8981 28.1263 47.9515 28.1649C48.0075 28.2054 48.0627 28.2468 48.118 28.2885C48.1707 28.3283 48.2238 28.3678 48.2756 28.4086C48.3393 28.4589 48.4013 28.5108 48.4636 28.5625C48.5477 28.6324 48.6304 28.7038 48.7118 28.7766C48.7575 28.8173 48.8032 28.8576 48.848 28.8992C48.9025 28.9498 48.956 29.0015 49.0091 29.0532C49.0497 29.0925 49.0896 29.1323 49.1291 29.1723C49.1828 29.2264 49.2364 29.2812 49.2887 29.3364C49.324 29.3739 49.3584 29.4121 49.3928 29.4501C49.5796 29.6549 49.7569 29.8678 49.9238 30.088C49.9511 30.1242 49.9787 30.1601 50.0056 30.1967C50.0546 30.2634 50.1024 30.3307 50.1494 30.3988C50.1751 30.4359 50.2001 30.473 50.2251 30.5104C50.2724 30.5807 50.3194 30.6514 50.3647 30.723C50.3817 30.7501 50.398 30.778 50.4147 30.8052C50.5126 30.9646 50.6061 31.1269 50.6937 31.2921C50.7028 31.3089 50.7123 31.3255 50.7212 31.3424C50.7621 31.4206 50.8005 31.4997 50.8391 31.5792C50.8569 31.6161 50.8747 31.653 50.8922 31.69C50.9287 31.7679 50.9642 31.8466 50.9983 31.9255C51.0141 31.9627 51.0293 31.9998 51.0449 32.0372C51.0792 32.1196 51.1132 32.2023 51.145 32.2859C51.145 32.286 51.145 32.2862 51.145 32.2862H44.5086C42.5127 32.2862 41.0023 32.6581 39.8914 33.4232L39.8359 33.4617C37.3792 35.1547 36.1046 35.8983 34.0058 34.3102C32.3056 33.0239 30.07 32.2862 27.8725 32.2862H21.1942C21.391 31.7471 21.6414 31.2319 21.9395 30.7456ZM20.7039 49.7894C20.7309 50.1316 20.7868 50.4661 20.8692 50.7912C20.7864 50.4662 20.7309 50.1317 20.7039 49.7894ZM51.2298 51.6903C50.9869 52.2647 50.6566 52.7972 50.2535 53.2727C50.2534 53.2728 50.2531 53.2729 50.2531 53.2732C50.0532 53.509 49.8356 53.7308 49.6023 53.9369C49.5992 53.9395 49.5965 53.942 49.5935 53.9447C49.4787 54.0457 49.36 54.1429 49.2379 54.2361C49.2315 54.2409 49.2251 54.2455 49.2187 54.2504C49.1017 54.339 48.9812 54.4239 48.8577 54.505C48.8507 54.5096 48.8441 54.5143 48.837 54.519C48.7121 54.6003 48.5836 54.6774 48.4527 54.7507C48.4367 54.7597 48.42 54.7684 48.4038 54.7774C48.2812 54.8447 48.1562 54.9086 48.0291 54.9684C48.0185 54.9734 48.0079 54.9788 47.9972 54.9838C47.8644 55.0453 47.7285 55.1022 47.5908 55.1554C47.5653 55.1651 47.5396 55.1745 47.5142 55.1839C47.3857 55.2318 47.2556 55.2762 47.1235 55.3167C47.1115 55.3204 47.0995 55.3247 47.0873 55.3282C46.9471 55.3701 46.8045 55.4067 46.6605 55.4396C46.6284 55.447 46.5961 55.4539 46.5638 55.4607C46.4266 55.4901 46.2881 55.5164 46.1477 55.5376C46.1382 55.5391 46.1289 55.5409 46.1194 55.5423C45.9722 55.5638 45.823 55.5794 45.6729 55.5916C45.6369 55.5946 45.6007 55.597 45.5643 55.5995C45.4125 55.6093 45.2597 55.6161 45.1053 55.6161H43.9555C43.7367 55.6161 43.521 55.6111 43.31 55.6063C42.0406 55.5764 40.6016 55.5435 39.4971 56.6827L39.3775 56.8064C38.1642 58.0576 37.198 58.5681 36.0426 58.5681C34.8465 58.5681 33.9136 58.0854 33.107 57.0493C32.0606 55.7049 30.5781 55.614 29.1067 55.614C28.9912 55.614 28.8755 55.6146 28.7604 55.6151L27.3505 55.6163C27.197 55.6163 27.0454 55.6096 26.8943 55.6C26.8567 55.5975 26.8193 55.5949 26.7819 55.5918C26.6322 55.5798 26.4832 55.5648 26.3363 55.5436C26.3358 55.5435 26.3355 55.5433 26.3351 55.5433C26.1882 55.5221 26.0434 55.4946 25.8998 55.4643C25.864 55.4567 25.8283 55.449 25.7929 55.4409C25.65 55.4084 25.5083 55.3734 25.3694 55.3324C25.3688 55.3322 25.3683 55.3321 25.3677 55.3319C25.2289 55.291 25.0928 55.2445 24.9579 55.1952C24.9243 55.1831 24.8911 55.1705 24.8578 55.1579C24.7235 55.1066 24.5908 55.0529 24.4613 54.9937C24.4608 54.9935 24.4604 54.9932 24.4599 54.993C24.3305 54.9339 24.2044 54.8698 24.0797 54.8032C24.0491 54.7869 24.0186 54.7704 23.9883 54.7534C23.8645 54.6849 23.7423 54.614 23.6238 54.5382C23.6235 54.5379 23.623 54.5376 23.6226 54.5373C23.5045 54.4618 23.3898 54.3815 23.2772 54.299C23.2497 54.2789 23.2226 54.2588 23.1954 54.2383C23.0837 54.1539 22.9739 54.0675 22.8682 53.9766C22.8677 53.9762 22.8674 53.9759 22.8669 53.9757C22.7618 53.8851 22.6608 53.7905 22.5618 53.6939C22.538 53.6705 22.5142 53.6469 22.4903 53.6231C22.3926 53.5246 22.2968 53.4242 22.2056 53.3198C22.2053 53.3195 22.2051 53.3192 22.2048 53.319C22.1142 53.2151 22.0282 53.1074 21.9445 52.9981C21.9245 52.9718 21.9046 52.9456 21.885 52.9189C21.8025 52.8078 21.7227 52.695 21.6479 52.5786C21.6476 52.5782 21.6473 52.5778 21.647 52.5772C21.5728 52.4617 21.5038 52.3429 21.4373 52.2228C21.4215 52.1942 21.4056 52.1654 21.3903 52.1363C21.3251 52.0142 21.2628 51.8904 21.2061 51.7641C21.2061 51.764 21.2061 51.7638 21.206 51.7637C21.4556 51.7866 21.7077 51.8102 21.9664 51.8349C23.2624 51.9583 24.6234 52.0877 25.9713 52.0877C28.2051 52.0877 30.4028 51.7319 32.2086 50.4017C32.7043 50.0366 33.1375 49.5678 33.5565 49.1145C34.5296 48.0609 35.1927 47.4213 36.1904 47.4213C37.0941 47.4213 37.4629 47.798 38.2107 48.6493C39.3649 49.9638 40.9459 51.764 45.7975 51.8322C45.8115 51.8325 45.8147 51.8325 51.2298 51.6903ZM55.3834 38.0087V45.9354V46.0824C55.3834 47.5218 54.709 48.7656 53.7346 49.3604C53.3455 49.5978 52.9098 49.735 52.4481 49.735L52.4197 49.7354C52.4197 49.7354 52.1353 49.7429 51.6861 49.7547C50.0304 49.7981 46.1182 49.9007 45.7916 49.9094C41.9107 49.8503 40.8265 48.6158 39.7783 47.422C38.9865 46.5205 38.0892 45.4987 36.1909 45.4987C34.1955 45.4988 32.9906 46.8027 32.0226 47.8505C31.6504 48.2532 31.2989 48.6339 30.9572 48.8857C28.7052 50.5444 25.3832 50.2283 22.1712 49.9218C21.6874 49.8758 21.193 49.8293 20.7039 49.7893C20.4683 49.7702 20.2339 49.7521 20.0032 49.7373C19.5085 49.7054 19.0509 49.5487 18.6474 49.2985C17.654 48.683 16.9987 47.486 16.9987 46.0826V45.9356V38.0089V37.8618C16.9987 36.414 17.6808 35.1638 18.6651 34.5732C19.0497 34.3424 19.4791 34.2093 19.9339 34.2093H20.7386H27.8727C29.6159 34.2093 31.3872 34.7932 32.733 35.8113C36.14 38.3886 38.7412 36.5965 41.036 35.0152L41.0915 34.9771C41.8311 34.4677 42.9809 34.2091 44.5089 34.2091H51.6258H52.4484C52.8986 34.2091 53.3239 34.3396 53.7056 34.5661C54.6959 35.1536 55.3837 36.408 55.3837 37.8617V38.0087H55.3834ZM49.8436 68.0773H47.5893C46.6216 68.0773 45.8345 67.3339 45.8345 66.4198C45.8345 65.5059 46.6216 64.7623 47.5893 64.7623H49.8436V68.0773ZM63.8729 57.5003C63.8729 63.3324 58.8492 68.0773 52.6745 68.0773H51.8796V64.7623H52.6745C56.914 64.7623 60.3633 61.5046 60.3633 57.5003V47.7886H63.8729V57.5003ZM63.8729 45.8655H60.3633V45.3236V39.0703H60.7704H63.8727V45.8655H63.8729ZM63.8729 37.1356H60.3633V30.3404H63.8729V37.1356ZM63.8729 28.4173H60.3633V20.9831C60.3633 16.9788 56.914 13.7211 52.6745 13.7211C51.7068 13.7211 50.9197 12.9775 50.9197 12.0636C50.9197 11.1497 51.7068 10.4061 52.6745 10.4061C58.8492 10.4061 63.8729 15.151 63.8729 20.9831V28.4173Z" fill="#585858"/>
</svg>
