<svg width="75" height="74" viewBox="0 0 75 74" fill="none" xmlns="http://www.w3.org/2000/svg">
<path d="M2 35.5211H71M2 35.5211C2 54.4507 16.6667 63.784 24 66.0845M2 35.5211C7 30.2629 20.8 19.7465 36 19.7465C39.4014 19.7465 42.7661 20.2731 46 21.1496M71 35.5211C71 56.2254 58 64.1127 50 66.0845M71 35.5211C68.7494 33.3022 64.8723 30.1469 60 27.2406M50 66.0845C46 66.0845 27 66.0845 24 66.0845M50 66.0845V72H24V66.0845M50 22.4266L60 3.97183L56 2L46 21.1496M50 22.4266C48.6944 21.9479 47.3588 21.5179 46 21.1496M50 22.4266C52.0863 23.1915 54.0958 24.0807 56 25.0406M56 25.0406L68 6.92958L72 8.90141L60 27.2406M56 25.0406C57.3935 25.7431 58.7305 26.4834 60 27.2406" stroke="#585858" stroke-width="3"/>
</svg>
