<svg width="70" height="70" viewBox="0 0 70 70" fill="none" xmlns="http://www.w3.org/2000/svg">
<path d="M22.5 65.4839C23.8807 65.4839 25 64.4729 25 63.2258C25 61.9787 23.8807 60.9677 22.5 60.9677C21.1193 60.9677 20 61.9787 20 63.2258C20 64.4729 21.1193 65.4839 22.5 65.4839Z" stroke="#0CB1F3" stroke-width="3" stroke-linecap="round" stroke-linejoin="round"/>
<path d="M50 65.4839C51.3807 65.4839 52.5 64.4729 52.5 63.2258C52.5 61.9787 51.3807 60.9677 50 60.9677C48.6193 60.9677 47.5 61.9787 47.5 63.2258C47.5 64.4729 48.6193 65.4839 50 65.4839Z" stroke="#0CB1F3" stroke-width="3" stroke-linecap="round" stroke-linejoin="round"/>
<path d="M2.5 18.0645H12.5L19.2 48.3C19.4286 49.3396 20.0548 50.2735 20.9689 50.9381C21.883 51.6027 23.0267 51.9558 24.2 51.9355H48.5C49.6733 51.9558 50.817 51.6027 51.7311 50.9381C52.6452 50.2735 53.2714 49.3396 53.5 48.3L57.5 29.3548H15" stroke="#0CB1F3" stroke-width="3" stroke-linecap="round" stroke-linejoin="round"/>
<path d="M42.291 15.8065H62.7077" stroke="#0CB1F3" stroke-width="3" stroke-linecap="round" stroke-linejoin="round"/>
</svg>
