<svg width="70" height="70" viewBox="0 0 70 70" fill="none" xmlns="http://www.w3.org/2000/svg">

<path d="M46.666 61.25V55.4167C46.666 52.3225 45.4369 49.355 43.2489 47.1671C41.061 44.9792 38.0935 43.75 34.9993 43.75H14.5827C11.4885 43.75 8.52103 44.9792 6.3331 47.1671C4.14518 49.355 2.91602 52.3225 2.91602 55.4167V61.25" stroke="#B7B7B7" stroke-width="3" stroke-linecap="round" stroke-linejoin="round"/>
<path d="M24.7917 32.0833C31.235 32.0833 36.4583 26.86 36.4583 20.4167C36.4583 13.9733 31.235 8.75 24.7917 8.75C18.3483 8.75 13.125 13.9733 13.125 20.4167C13.125 26.86 18.3483 32.0833 24.7917 32.0833Z" stroke="#B7B7B7" stroke-width="3" stroke-linecap="round" stroke-linejoin="round"/>
<path d="M58.334 23.3333V40.8333" stroke="#B7B7B7" stroke-width="3" stroke-linecap="round" stroke-linejoin="round"/>
<path d="M67.084 32.0833H49.584" stroke="#B7B7B7" stroke-width="3" stroke-linecap="round" stroke-linejoin="round"/>
</svg>
